. 
 
http://www.torrenting.com          :     Once & For all ;)


               www . Torrenting . Com 

(((((((((((((= Enjoy No RAR releases =))))))))))))))))))))


...................................NFO:....................................

.[img]http://img707.imageshack.us/img707/2056/justiceleaguedoombluray.jpg[/img]


[color=blue][size=5][b]Justice.League.Doom.2012.BDRip.XVID.AC3.HQ.Hive-CM8[/b][/size][/color]


[b] Thx Hive

CM8 Doing it right the first time :D

Source: Bluray

Video: 720x400 @bitrate 2000 2pass
Audio: English DTS to AC3 5.1 @384
Sample: yes included
Subs: yes english in srt /subs[/b]


[url]http://www.imdb.com/title/tt2027128/[/url]


General
Complete name                  : Justice.League.Doom.2012.BDRip.XVID.AC3.HQ.Hive-CM8.avi
Format                         : AVI
Format/Info                    : Audio Video Interleave
File size                      : 1.26 GiB
Duration                       : 1h 16mn
Overall bit rate               : 2 339 Kbps
Writing application            : Nandub v1.0rc2
Writing library                : Nandub build 1853/release

Video
ID                             : 0
Format                         : MPEG-4 Visual
Format profile                 : Advanced Simple@L5
Format settings, BVOP          : 1
Format settings, QPel          : Yes
Format settings, GMC           : No warppoints
Format settings, Matrix        : Default (H.263)
Muxing mode                    : Packed bitstream
Codec ID                       : XVID
Codec ID/Hint                  : XviD
Duration                       : 1h 16mn
Bit rate                       : 1 946 Kbps
Width                          : 720 pixels
Height                         : 400 pixels
Display aspect ratio           : 16:9
Frame rate                     : 23.976 fps
Color space                    : YUV
Chroma subsampling             : 4:2:0
Bit depth                      : 8 bits
Scan type                      : Progressive
Compression mode               : Lossy
Bits/(Pixel*Frame)             : 0.282
Stream size                    : 1.04 GiB (83%)
Writing library                : XviD 1.2.1 (UTC 2008-12-04)

Audio
ID                             : 1
Format                         : AC-3
Format/Info                    : Audio Coding 3
Mode extension                 : CM (complete main)
Codec ID                       : 2000
Duration                       : 1h 16mn
Bit rate mode                  : Constant
Bit rate                       : 384 Kbps
Channel(s)                     : 6 channels
Channel positions              : Front: L C R, Side: L R, LFE
Sampling rate                  : 48.0 KHz
Bit depth                      : 16 bits
Compression mode               : Lossy
Stream size                    : 211 MiB (16%)
Alignment                      : Split accross interleaves
Interleave, duration           : 42 ms (1.00 video frame)
Interleave, preload duration   : 500 ms



Ra's al Ghul steals confidential files Batman has compiled on the members of 
the Justice League, and learns all their weaknesses. 

 
Kevin Conroy	... 	Batman (voice)
Tim Daly	... 	Superman (voice)
Susan Eisenberg	... 	Wonder Woman (voice)
Nathan Fillion	... 	Green Lantern (voice)
Michael Rosenbaum ... 	The Flash (voice)
	


[img]http://img46.imageshack.us/img46/3470/74095229.png[/img]
[img]http://img593.imageshack.us/img593/593/jujjuu.png[/img]
[img]http://img825.imageshack.us/img825/4350/jujuv.png[/img]
[img]http://img441.imageshack.us/img441/3469/jujjujuu.png[/img]
[img]http://img715.imageshack.us/img715/5174/jujjujjuuu.png[/img]
[img]http://img11.imageshack.us/img11/7370/jujjujjujuu.png[/img]





Greetz

ViSiON,SPK,SceneLovers,PRESTiGE,SANTi,3LT0N,YanKeeS,MAGNET,THC,T0XiC,LKRG,Feel-Free,FLAWL3SS,
WBZ,BHRG,SiC,26K,NOVA,D2U,TED,COPYxRIGHT,jtr,Rapeseed,SAFC,goldadvance,KaN1vE,Unevano,Pinnz,Wayne
Mr Hive,and most P2P groups
Great Work Guys :D


LOOKING FOR ANYTHING YOU WANT TO LOOK AND SOUND BETTER

CM8@hushmail.com